<?xml version="1.0" standalone="no"?>
<!DOCTYPE svg PUBLIC "-//W3C//DTD SVG 20010904//EN"
 "http://www.w3.org/TR/2001/REC-SVG-20010904/DTD/svg10.dtd">
<svg version="1.0" xmlns="http://www.w3.org/2000/svg"
 width="236.000000pt" height="236.000000pt" viewBox="0 0 236.000000 236.000000"
 preserveAspectRatio="xMidYMid meet">

<g transform="translate(0.000000,236.000000) scale(0.100000,-0.100000)"
fill="#000000" stroke="none">
<path d="M1433 2045 c-34 -24 -92 -41 -263 -76 -174 -36 -165 -36 -165 1 0 46
-27 62 -56 34 -17 -18 -19 -25 -10 -43 7 -11 16 -21 21 -21 6 0 10 -4 10 -10
0 -5 -18 -10 -40 -10 -38 0 -40 -2 -40 -29 0 -37 47 -96 64 -81 7 5 11 23 8
39 -4 29 -3 29 73 46 92 21 98 17 91 -65 -3 -30 -11 -120 -17 -200 -6 -80 -13
-146 -14 -148 -2 -2 -20 4 -40 12 -169 71 -317 -119 -356 -457 -41 -357 78
-721 248 -753 146 -27 261 145 293 439 17 150 -9 377 -46 408 -8 7 -14 30 -14
58 -1 82 -44 167 -78 154 -12 -5 -14 -2 -9 11 4 10 7 36 7 59 l0 41 29 -29
c58 -55 123 -207 155 -360 46 -223 20 -488 -65 -656 -40 -80 -109 -145 -173
-164 -67 -20 -94 -19 -209 10 -206 51 -389 58 -557 20 -41 -9 -122 -25 -180
-35 -58 -10 -91 -18 -73 -19 18 0 114 15 215 35 165 32 195 35 303 31 85 -3
155 -13 240 -33 148 -36 241 -38 301 -7 216 113 298 585 169 969 -33 97 -54
138 -106 204 l-42 53 12 146 c6 80 14 173 17 206 4 44 2 65 -9 80 -15 20 -15
20 -94 0 -77 -20 -78 -20 -78 -52 0 -18 -5 -33 -11 -33 -16 0 -44 45 -44 70 0
17 6 20 39 20 22 0 42 4 45 9 3 4 25 11 48 14 67 9 330 64 362 76 15 6 40 20
54 31 38 31 75 26 111 -15 32 -37 40 -65 19 -65 -7 0 -26 16 -41 35 -15 19
-34 35 -41 35 -7 0 -34 -12 -60 -26 -25 -14 -85 -34 -133 -44 -107 -22 -120
-27 -128 -48 -9 -24 -25 -223 -25 -321 0 -81 2 -87 51 -183 28 -55 65 -145 84
-201 56 -173 69 -138 81 218 4 110 9 225 11 256 5 66 -10 89 -61 89 -53 0 -76
39 -35 60 31 17 152 25 177 11 32 -17 27 -46 -13 -70 -19 -11 -35 -28 -35 -38
0 -10 -7 -108 -15 -218 -40 -555 -40 -655 -5 -693 10 -10 26 -38 37 -63 43
-95 99 -103 140 -19 33 68 49 269 35 438 -15 166 -28 226 -58 262 -30 35 -51
30 -62 -14 -11 -40 -36 -41 -40 -1 -4 45 31 95 66 95 88 0 130 -180 117 -495
-7 -148 -6 -162 12 -183 28 -36 74 -40 203 -19 93 15 154 17 320 14 113 -2
174 -1 135 3 -126 13 -346 11 -440 -5 -129 -21 -178 -20 -201 6 -17 19 -19 39
-19 248 -1 241 -10 318 -49 387 -38 68 -115 73 -142 9 -18 -44 -18 -89 1 -105
20 -17 43 2 47 38 5 45 36 40 58 -10 37 -85 56 -322 39 -508 -17 -198 -89
-271 -146 -149 l-20 43 51 50 c95 93 134 218 85 267 -14 14 -28 19 -44 15 -74
-19 -111 -50 -121 -102 -7 -39 0 -156 12 -189 5 -16 4 -18 -6 -8 -32 29 -32
163 0 588 5 72 12 174 15 228 7 96 7 98 41 123 40 31 45 67 12 85 -22 12 -156
8 -191 -6 -9 -4 -20 -19 -24 -33 -7 -31 17 -52 62 -52 42 0 55 -16 55 -65 0
-58 -17 -79 -53 -66 -35 14 -124 14 -132 2 -10 -17 33 -31 102 -34 l68 -2 -2
-150 c-1 -177 -12 -335 -22 -335 -4 0 -13 24 -20 53 -20 75 -66 188 -111 271
-38 69 -40 78 -40 157 0 127 19 312 33 326 7 7 56 21 110 32 58 12 117 31 143
46 48 28 56 26 92 -17 13 -15 32 -28 43 -28 31 0 23 44 -15 84 -40 43 -83 47
-133 11z m-435 -64 c5 -32 -13 -48 -33 -31 -18 15 -20 46 -2 53 20 9 32 2 35
-22z m307 -361 c14 -6 4 -9 -37 -9 -31 -1 -60 4 -63 9 -8 12 71 12 100 0z
m-254 -137 l41 -16 -5 -66 c-3 -37 -14 -84 -26 -106 -30 -60 -69 -216 -77
-310 -6 -70 -4 -83 10 -88 33 -13 67 100 85 287 6 60 11 118 11 128 0 11 7 18
20 18 27 0 51 -51 57 -121 5 -48 2 -62 -15 -83 -34 -45 -62 -214 -36 -223 16
-5 42 67 58 158 12 68 14 72 24 47 29 -73 45 -247 33 -369 -18 -190 -68 -326
-145 -397 -55 -51 -100 -61 -161 -37 -108 41 -184 199 -214 440 -15 122 -14
211 4 330 34 223 107 362 215 409 46 20 71 20 121 -1z m19 -283 c-17 -172 -46
-290 -70 -290 -27 0 13 242 61 367 16 43 19 22 9 -77z m95 -126 c-9 -72 -33
-154 -45 -154 -13 0 -13 4 4 94 23 116 54 162 41 60z m389 24 c22 -31 20 -84
-5 -135 -25 -51 -114 -151 -124 -141 -11 11 -24 86 -25 141 0 73 21 114 72
137 55 25 64 25 82 -2z"/>
</g>
</svg>
